<svg width="20" height="20" viewBox="0 0 20 20" fill="none" xmlns="http://www.w3.org/2000/svg">
<path d="M10 6.25C10 6.25 10 6.25 9.40889 5.5C8.72444 4.63 7.71333 4 6.5 4C4.56333 4 3 5.5075 3 7.375C3 8.0725 3.21778 8.7175 3.59111 9.25C4.22111 10.1575 10 16 10 16M10 6.25C10 6.25 10 6.25 10.5911 5.5C11.2756 4.63 12.2867 4 13.5 4C15.4367 4 17 5.5075 17 7.375C17 8.0725 16.7822 8.7175 16.4089 9.25C15.7789 10.1575 10 16 10 16" fill="#BFBFBF"/>
<path d="M10 6.25C10 6.25 10 6.25 9.40889 5.5C8.72444 4.63 7.71333 4 6.5 4C4.56333 4 3 5.5075 3 7.375C3 8.0725 3.21778 8.7175 3.59111 9.25C4.22111 10.1575 10 16 10 16C10 16 15.7789 10.1575 16.4089 9.25C16.7822 8.7175 17 8.0725 17 7.375C17 5.5075 15.4367 4 13.5 4C12.2867 4 11.2756 4.63 10.5911 5.5C10 6.25 10 6.25 10 6.25Z" stroke="#BFBFBF" stroke-width="0.5" stroke-linecap="round" stroke-linejoin="round"/>
</svg>
