<svg width="24" height="24" viewBox="0 0 24 24" fill="none" xmlns="http://www.w3.org/2000/svg">
<path d="M12 7.625C12 7.625 12 7.625 11.3244 6.75C10.5422 5.735 9.38667 5 8 5C5.78667 5 4 6.75875 4 8.9375C4 9.75125 4.24889 10.5037 4.67556 11.125C5.39556 12.1838 12 19 12 19M12 7.625C12 7.625 12 7.625 12.6756 6.75C13.4578 5.735 14.6133 5 16 5C18.2133 5 20 6.75875 20 8.9375C20 9.75125 19.7511 10.5037 19.3244 11.125C18.6044 12.1838 12 19 12 19" fill="#BFBFBF"/>
<path d="M12 7.625C12 7.625 12 7.625 11.3244 6.75C10.5422 5.735 9.38667 5 8 5C5.78667 5 4 6.75875 4 8.9375C4 9.75125 4.24889 10.5038 4.67556 11.125C5.39556 12.1838 12 19 12 19C12 19 18.6044 12.1838 19.3244 11.125C19.7511 10.5038 20 9.75125 20 8.9375C20 6.75875 18.2133 5 16 5C14.6133 5 13.4578 5.735 12.6756 6.75C12 7.625 12 7.625 12 7.625Z" stroke="#BFBFBF" stroke-width="1.8" stroke-linecap="round" stroke-linejoin="round"/>
</svg>
