<svg width="24" height="24" viewBox="0 0 24 24" fill="none" xmlns="http://www.w3.org/2000/svg">
<path d="M11 7.95238C11 8.20497 11.1054 8.44721 11.2929 8.62582C11.4804 8.80442 11.7348 8.90476 12 8.90476C12.2652 8.90476 12.5196 8.80442 12.7071 8.62582C12.8946 8.44721 13 8.20497 13 7.95238C13 7.69979 12.8946 7.45755 12.7071 7.27895C12.5196 7.10034 12.2652 7 12 7C11.7348 7 11.4804 7.10034 11.2929 7.27895C11.1054 7.45755 11 7.69979 11 7.95238ZM11 12C11 12.2526 11.1054 12.4948 11.2929 12.6734C11.4804 12.852 11.7348 12.9524 12 12.9524C12.2652 12.9524 12.5196 12.852 12.7071 12.6734C12.8946 12.4948 13 12.2526 13 12C13 11.7474 12.8946 11.5052 12.7071 11.3266C12.5196 11.148 12.2652 11.0476 12 11.0476C11.7348 11.0476 11.4804 11.148 11.2929 11.3266C11.1054 11.5052 11 11.7474 11 12ZM11 16.0476C11 16.3002 11.1054 16.5424 11.2929 16.7211C11.4804 16.8997 11.7348 17 12 17C12.2652 17 12.5196 16.8997 12.7071 16.7211C12.8946 16.5424 13 16.3002 13 16.0476C13 15.795 12.8946 15.5528 12.7071 15.3742C12.5196 15.1956 12.2652 15.0952 12 15.0952C11.7348 15.0952 11.4804 15.1956 11.2929 15.3742C11.1054 15.5528 11 15.795 11 16.0476Z" fill="#BFBFBF"/>
</svg>
