<svg width="12" height="12" viewBox="0 0 12 12" fill="none" xmlns="http://www.w3.org/2000/svg">
<path d="M6 10C6.79112 10 7.56448 9.7654 8.22228 9.32588C8.88008 8.88635 9.39277 8.26164 9.69552 7.53073C9.99827 6.79983 10.0775 5.99556 9.92314 5.21964C9.7688 4.44372 9.38783 3.73098 8.82842 3.17157C8.26901 2.61216 7.55628 2.2312 6.78036 2.07686C6.00444 1.92252 5.20017 2.00173 4.46927 2.30448C3.73836 2.60723 3.11365 3.11992 2.67412 3.77772C2.2346 4.43552 2 5.20888 2 6C2 6.66133 2.16 7.28445 2.44444 7.83422L2 10L4.16578 9.55556C4.71511 9.83956 5.33911 10 6 10Z" stroke="#293A92" stroke-linecap="round" stroke-linejoin="round"/>
</svg>
