<svg width="24" height="24" viewBox="0 0 24 24" fill="none" xmlns="http://www.w3.org/2000/svg">
<path d="M8.10956 19.2008V12.6848C8.10956 11.6393 8.54431 10.6367 9.31817 9.8974C10.092 9.15813 11.1416 8.74281 12.236 8.74281C13.3304 8.74281 14.38 9.15813 15.1538 9.8974C15.9277 10.6367 16.3625 11.6393 16.3625 12.6848V19.2008M8.10956 19.2008H16.3625M8.10956 19.2008C7.6718 19.2008 6.40039 19.2008 6.40039 19.2008M16.3625 19.2008C16.8002 19.2008 17.6004 19.2008 17.6004 19.2008M17.6004 6.7718L17.1877 7.166M12.236 4.80078V5.58919M6.40039 7.11002L6.98387 7.66742" stroke="#BFBFBF" stroke-width="1.8" stroke-linecap="round" stroke-linejoin="round"/>
</svg>
