<svg width="12" height="12" viewBox="0 0 12 12" fill="none" xmlns="http://www.w3.org/2000/svg">
<path d="M0.905137 4.86334C1.04578 4.72274 1.23651 4.64375 1.43539 4.64375C1.63426 4.64375 1.82499 4.72274 1.96564 4.86334L4.61764 7.51534L9.92014 2.21209C9.98977 2.14241 10.0724 2.08712 10.1634 2.04939C10.2544 2.01166 10.352 1.99222 10.4505 1.99219C10.549 1.99215 10.6466 2.01152 10.7376 2.04919C10.8286 2.08685 10.9113 2.14208 10.981 2.21171C11.0507 2.28135 11.106 2.36402 11.1437 2.45502C11.1814 2.54602 11.2009 2.64356 11.2009 2.74207C11.2009 2.84059 11.1816 2.93814 11.1439 3.02917C11.1062 3.12019 11.051 3.20291 10.9814 3.27259L4.61764 9.63634L0.905137 5.92384C0.764533 5.78319 0.685547 5.59246 0.685547 5.39359C0.685547 5.19472 0.764533 5.00399 0.905137 4.86334Z" fill="#D9D9D9"/>
</svg>
